<svg width="195" height="56" viewBox="0 0 195 56" fill="none" xmlns="http://www.w3.org/2000/svg">
<g clip-path="url(#clip0_491_1274)">
<path d="M8.39869 39.848C8.49522 36.8497 11.1017 33.4646 14.1908 32.6908C24.0373 30.1762 30.4086 24.3731 32.6289 14.2176C33.4012 10.7358 36.2972 8.60794 39.6759 8.41451C42.765 8.31779 45.8541 10.2522 47.0125 13.057C48.2675 16.0553 47.5918 19.7306 45.0819 21.7617C42.9581 23.5026 40.1586 24.0829 37.5522 24.9534C29.7328 27.468 25.6784 33.1744 23.6512 40.6218C22.3962 45.1675 19.114 48.3592 15.1561 47.9724C11.3913 47.3921 8.30215 43.8135 8.39869 39.848Z" fill="#2554FF"/>
<path d="M38.4208 47.6822C34.0767 47.4888 33.1114 48.2625 32.0495 52.7116C31.4703 54.9361 30.1188 56.1934 27.7055 56C25.6782 55.8066 24.3267 54.5492 24.1337 52.5181C23.8441 50.1969 25.0025 48.6494 27.2228 48.0691C32.2426 46.6183 32.6287 46.1347 32.4357 40.9119C32.2426 36.076 35.5248 32.304 40.0619 32.304C44.3094 32.304 47.7847 35.7858 47.7847 39.9447C47.7847 44.2003 44.5025 47.5855 40.1584 47.6822C39.5792 47.7789 39 47.6822 38.4208 47.6822Z" fill="#2554FF"/>
<path d="M17.2795 8.31779C21.6235 8.60795 22.4923 7.93092 23.6507 3.38515C24.23 1.16062 25.7745 -0.096719 28.0913 0.096718C30.4082 0.290155 31.8562 1.74093 31.9527 4.06218C32.0493 6.38342 30.7943 7.8342 28.4775 8.31779C23.9404 9.38169 23.3611 10.2522 23.6507 15.0881C23.9404 19.8273 20.9478 23.5026 16.5072 23.7927C12.1631 24.0829 8.49481 20.8912 8.10867 16.5389C7.81906 11.6062 11.777 7.93092 17.2795 8.31779Z" fill="#2554FF"/>
<path d="M51.839 32.304C49.5222 32.304 47.5915 30.4663 47.688 28.1451C47.688 25.8238 49.6187 23.9862 51.9356 23.9862C54.1559 23.9862 56.0866 26.0173 55.99 28.3385C55.8935 30.2729 53.7697 32.304 51.839 32.304Z" fill="#2554FF"/>
<path d="M4.15099 23.8895C6.37128 23.9862 8.10891 25.8238 8.01237 28.0484C7.91584 30.4663 6.08168 32.2072 3.66831 32.0138C1.44802 31.8204 -0.193073 29.9827 -0.0965385 27.7582C0.0965308 25.5337 2.02722 23.7927 4.15099 23.8895Z" fill="#2554FF"/>
<path d="M67.188 49.5199V28.0484H71.7251V49.5199H67.188Z" fill="#2046CF"/>
<path d="M96.1483 49.5199H90.3563L81.0889 33.2712H80.9924C81.1855 36.1727 81.282 38.2038 81.282 39.4611V49.6166H77.2275V28.0484H82.9231L92.2869 44.2003H92.3835C92.1904 41.3955 92.1904 39.4611 92.1904 38.3005V28.0484H96.2449V49.5199H96.1483Z" fill="#2046CF"/>
<path d="M109.857 49.5199H105.319V31.8204H99.5273V28.0484H115.745V31.8204H109.953V49.5199H109.857Z" fill="#2046CF"/>
<path d="M131.384 49.5199H119.027V28.0484H131.384V31.8204H123.564V36.5596H130.805V40.3316H123.564V45.8446H131.384V49.5199Z" fill="#2046CF"/>
<path d="M140.361 41.2988V49.5199H135.824V28.0484H142.099C144.995 28.0484 147.215 28.6287 148.567 29.6926C149.918 30.7565 150.691 32.4007 150.691 34.5285C150.691 35.7858 150.304 36.9465 149.629 37.9136C148.953 38.8808 147.988 39.6546 146.636 40.2349C149.822 45.0708 151.946 48.1658 152.911 49.6166H147.891L142.775 41.3955H140.361V41.2988ZM140.361 37.5268H141.809C143.257 37.5268 144.319 37.3333 144.995 36.8497C145.671 36.3661 146.057 35.5924 146.057 34.6252C146.057 33.5613 145.671 32.8843 144.995 32.4007C144.319 32.0138 143.257 31.7237 141.713 31.7237H140.361V37.5268Z" fill="#2046CF"/>
<path d="M155.903 49.5199V28.0484H158.413V47.2953H167.874V49.5199H155.903V49.5199Z" fill="#2046CF"/>
<path d="M171.542 49.5199V28.0484H174.052V49.5199H171.542Z" fill="#2046CF"/>
<path d="M182.45 40.6218V49.5199H179.94V28.0484H185.829C188.435 28.0484 190.366 28.532 191.621 29.5959C192.876 30.563 193.552 32.1105 193.552 34.1416C193.552 36.9465 192.104 38.8808 189.208 39.9447L195 49.6166H192.104L186.891 40.7185H182.45V40.6218ZM182.45 38.3972H185.829C187.567 38.3972 188.918 38.0104 189.69 37.3333C190.559 36.6563 190.945 35.5924 190.945 34.1416C190.945 32.6908 190.559 31.7237 189.69 31.0466C188.822 30.4663 187.47 30.0794 185.636 30.0794H182.45V38.3972Z" fill="#2046CF"/>
</g>
<defs>
<clipPath id="clip0_491_1274">
<rect width="195" height="56" fill="white"/>
</clipPath>
</defs>
</svg>
