<svg width="38" height="28" viewBox="0 0 38 28" fill="none" xmlns="http://www.w3.org/2000/svg">
<path d="M38 0H0V28H38V0Z" fill="#F0F0F0"/>
<path d="M38 3.49966H0V6.99932H38V3.49966Z" fill="#D80027"/>
<path d="M38 10.4999H0V13.9995H38V10.4999Z" fill="#D80027"/>
<path d="M38 17.4992H0V20.9989H38V17.4992Z" fill="#D80027"/>
<path d="M38 24.4994H0V27.9991H38V24.4994Z" fill="#D80027"/>
<path d="M19 0H0V15.0769H19V0Z" fill="#2E52B2"/>
<path d="M7.40858 6.17631L7.10257 7.21679H6.11279L6.91369 7.85949L6.60768 8.89988L7.40858 8.25718L8.20895 8.89988L7.90302 7.85949L8.70392 7.21679H7.71406L7.40858 6.17631Z" fill="#F0F0F0"/>
<path d="M7.71406 10.9715L7.40858 9.93109L7.10257 10.9715H6.11279L6.91369 11.6143L6.60768 12.6547L7.40858 12.0119L8.20895 12.6547L7.90302 11.6143L8.70392 10.9715H7.71406Z" fill="#F0F0F0"/>
<path d="M3.53103 10.9715L3.22547 9.93109L2.91947 10.9715H1.92969L2.73058 11.6143L2.42458 12.6547L3.22547 12.0119L4.02592 12.6547L3.71999 11.6143L4.52074 10.9715H3.53103Z" fill="#F0F0F0"/>
<path d="M3.22547 6.17631L2.91947 7.21679H1.92969L2.73058 7.85949L2.42458 8.89988L3.22547 8.25718L4.02592 8.89988L3.71999 7.85949L4.52074 7.21679H3.53103L3.22547 6.17631Z" fill="#F0F0F0"/>
<path d="M7.40858 2.42146L7.10257 3.46201H6.11279L6.91369 4.1048L6.60768 5.14519L7.40858 4.5024L8.20895 5.14519L7.90302 4.1048L8.70392 3.46201H7.71406L7.40858 2.42146Z" fill="#F0F0F0"/>
<path d="M3.22547 2.42146L2.91947 3.46201H1.92969L2.73058 4.1048L2.42458 5.14519L3.22547 4.5024L4.02592 5.14519L3.71999 4.1048L4.52074 3.46201H3.53103L3.22547 2.42146Z" fill="#F0F0F0"/>
<path d="M11.5916 6.17631L11.2857 7.21679H10.2959L11.0967 7.85949L10.7909 8.89988L11.5916 8.25718L12.3921 8.89988L12.0861 7.85949L12.887 7.21679H11.8972L11.5916 6.17631Z" fill="#F0F0F0"/>
<path d="M11.8972 10.9715L11.5916 9.93109L11.2857 10.9715H10.2959L11.0967 11.6143L10.7909 12.6547L11.5916 12.0119L12.3921 12.6547L12.0861 11.6143L12.887 10.9715H11.8972Z" fill="#F0F0F0"/>
<path d="M16.0803 10.9715L15.7747 9.93109L15.4687 10.9715H14.479L15.2798 11.6143L14.9738 12.6547L15.7747 12.0119L16.5752 12.6547L16.2692 11.6143L17.0701 10.9715H16.0803Z" fill="#F0F0F0"/>
<path d="M15.7747 6.17631L15.4687 7.21679H14.479L15.2798 7.85949L14.9738 8.89988L15.7747 8.25718L16.5752 8.89988L16.2692 7.85949L17.0701 7.21679H16.0803L15.7747 6.17631Z" fill="#F0F0F0"/>
<path d="M11.5916 2.42146L11.2857 3.46201H10.2959L11.0967 4.1048L10.7909 5.14519L11.5916 4.5024L12.3921 5.14519L12.0861 4.1048L12.887 3.46201H11.8972L11.5916 2.42146Z" fill="#F0F0F0"/>
<path d="M15.7747 2.42146L15.4687 3.46201H14.479L15.2798 4.1048L14.9738 5.14519L15.7747 4.5024L16.5752 5.14519L16.2692 4.1048L17.0701 3.46201H16.0803L15.7747 2.42146Z" fill="#F0F0F0"/>
</svg>
